<?xml version="1.0" encoding="UTF-8" standalone="no"?><!DOCTYPE svg PUBLIC "-//W3C//DTD SVG 1.1//EN" "http://www.w3.org/Graphics/SVG/1.1/DTD/svg11.dtd"><svg width="100%" height="100%" viewBox="0 0 417 84" version="1.1" xmlns="http://www.w3.org/2000/svg" xmlns:xlink="http://www.w3.org/1999/xlink" xml:space="preserve" xmlns:serif="http://www.serif.com/" style="fill-rule:evenodd;clip-rule:evenodd;stroke-linejoin:round;stroke-miterlimit:2;"><g id="Page-1"><g id="bank-note"><path id="Combined-Shape" d="M88.267,83.333c1.488,-0.542 2.999,-1.1 4.535,-1.673c1.509,-0.563 6.659,-2.493 7.364,-2.757c40,-14.955 65.03,-20.57 108.167,-20.57c42.797,0 64.008,5.091 102.62,20.536c3.982,1.593 7.788,3.079 11.459,4.464l25.938,0c-10.462,-3.044 -21.413,-7.046 -34.303,-12.202c-39.513,-15.805 -61.705,-21.131 -105.714,-21.131c-44.274,0 -70.23,5.822 -111.085,21.097c-0.711,0.266 -5.857,2.195 -7.359,2.755c-10.312,3.847 -19.42,6.979 -28.016,9.481l26.394,0Zm0,-83.333c-33.027,12.05 -54.614,16.667 -88.267,16.667l0,-8.334c23.933,0 41.464,-2.393 61.873,-8.333l26.394,-0Zm234.145,0c32.749,12.36 54.681,16.667 94.255,16.667l-0,-8.334c-28.51,0 -47.44,-2.259 -68.317,-8.333l-25.938,0Zm-322.412,58.333c35.169,0 57.16,-5.042 92.802,-18.34c1.509,-0.563 6.659,-2.493 7.364,-2.757c40,-14.955 65.03,-20.569 108.167,-20.569c42.797,-0 64.008,5.09 102.62,20.535c39.513,15.805 61.705,21.131 105.714,21.131l-0,-8.333c-42.797,0 -64.008,-5.091 -102.62,-20.535c-39.513,-15.806 -61.705,-21.132 -105.714,-21.132c-44.274,0 -70.23,5.823 -111.085,21.098c-0.711,0.265 -5.857,2.194 -7.359,2.754c-34.791,12.981 -55.874,17.815 -89.889,17.815l0,8.333Z" style="fill:#fff;fill-opacity:0.51;"/></g></g></svg>