<?xml version="1.0" encoding="UTF-8" standalone="no"?><!DOCTYPE svg PUBLIC "-//W3C//DTD SVG 1.1//EN" "http://www.w3.org/Graphics/SVG/1.1/DTD/svg11.dtd"><svg width="100%" height="100%" viewBox="0 0 45 10" version="1.1" xmlns="http://www.w3.org/2000/svg" xmlns:xlink="http://www.w3.org/1999/xlink" xml:space="preserve" xmlns:serif="http://www.serif.com/" style="fill-rule:evenodd;clip-rule:evenodd;stroke-linejoin:round;stroke-miterlimit:2;"><g><path d="M0.984,1.824l-0.984,-0.156l-0,-0.744l6.624,0l0.12,2.172l-0.96,0l-0.444,-1.32l-2.592,-0.132l-0,3.396l1.788,-0.036l0.228,-1.056l0.768,0l-0,3.048l-0.756,0l-0.24,-1.08l-1.788,-0.048l-0,3.132l1.836,0.12l-0,0.72l-4.524,0l-0,-0.72l0.924,-0.12l-0,-7.176Z" style="fill:#838694;fill-rule:nonzero;"/><path d="M8.268,1.068l-0.888,-0.156l-0,-0.648l2.22,-0.264l0.024,0l0.324,0.228l0,8.796l0.876,0.096l0,0.72l-3.396,0l0,-0.72l0.84,-0.108l0,-7.944Z" style="fill:#838694;fill-rule:nonzero;"/><path d="M11.652,6.516c-0,-0.752 0.15,-1.392 0.45,-1.92c0.3,-0.528 0.702,-0.926 1.206,-1.194c0.504,-0.268 1.052,-0.402 1.644,-0.402c1.008,0 1.786,0.31 2.334,0.93c0.548,0.62 0.822,1.462 0.822,2.526c-0,0.76 -0.15,1.406 -0.45,1.938c-0.3,0.532 -0.7,0.928 -1.2,1.188c-0.5,0.26 -1.05,0.39 -1.65,0.39c-1,-0 -1.776,-0.31 -2.328,-0.93c-0.552,-0.62 -0.828,-1.462 -0.828,-2.526Zm3.252,2.676c0.904,0 1.356,-0.872 1.356,-2.616c-0,-0.912 -0.108,-1.606 -0.324,-2.082c-0.216,-0.476 -0.568,-0.714 -1.056,-0.714c-0.928,0 -1.392,0.872 -1.392,2.616c-0,0.912 0.114,1.606 0.342,2.082c0.228,0.476 0.586,0.714 1.074,0.714Z" style="fill:#838694;fill-rule:nonzero;"/><path d="M19.2,9.132l0.792,-0.096l-0,-4.728l-0.768,-0.216l-0,-0.828l1.86,-0.252l0.036,0l0.3,0.24l-0,0.264l-0.036,0.972l0.036,0c0.056,-0.16 0.188,-0.358 0.396,-0.594c0.208,-0.236 0.47,-0.444 0.786,-0.624c0.316,-0.18 0.658,-0.27 1.026,-0.27c0.176,0 0.328,0.024 0.456,0.072l-0,1.8c-0.24,-0.168 -0.532,-0.252 -0.876,-0.252c-0.584,0 -1.092,0.156 -1.524,0.468l-0,3.936l1.392,0.108l-0,0.708l-3.876,0l-0,-0.708Z" style="fill:#838694;fill-rule:nonzero;"/><path d="M24.312,0.264l2.196,-0.264l0.024,0l0.336,0.228l-0,3.54c0.216,-0.216 0.482,-0.398 0.798,-0.546c0.316,-0.148 0.658,-0.222 1.026,-0.222c0.768,0 1.394,0.27 1.878,0.81c0.484,0.54 0.726,1.366 0.726,2.478c-0,0.688 -0.144,1.312 -0.432,1.872c-0.288,0.56 -0.702,1.002 -1.242,1.326c-0.54,0.324 -1.166,0.486 -1.878,0.486c-0.632,-0 -1.18,-0.054 -1.644,-0.162c-0.464,-0.108 -0.76,-0.206 -0.888,-0.294l-0,-8.484l-0.9,-0.144l-0,-0.624Zm3.744,3.792c-0.24,0 -0.466,0.054 -0.678,0.162c-0.212,0.108 -0.382,0.23 -0.51,0.366l0,4.38c0.048,0.088 0.16,0.16 0.336,0.216c0.176,0.056 0.376,0.084 0.6,0.084c0.512,0 0.922,-0.238 1.23,-0.714c0.308,-0.476 0.462,-1.182 0.462,-2.118c0,-0.808 -0.132,-1.406 -0.396,-1.794c-0.264,-0.388 -0.612,-0.582 -1.044,-0.582Z" style="fill:#838694;fill-rule:nonzero;"/><path d="M35.292,9.972c-1.056,-0 -1.842,-0.31 -2.358,-0.93c-0.516,-0.62 -0.774,-1.466 -0.774,-2.538c-0,-0.72 0.134,-1.344 0.402,-1.872c0.268,-0.528 0.646,-0.932 1.134,-1.212c0.488,-0.28 1.052,-0.42 1.692,-0.42c0.8,0 1.416,0.21 1.848,0.63c0.432,0.42 0.656,1.018 0.672,1.794c-0,0.528 -0.032,0.92 -0.096,1.176l-3.9,0c0.032,0.728 0.204,1.294 0.516,1.698c0.312,0.404 0.756,0.606 1.332,0.606c0.312,0 0.634,-0.052 0.966,-0.156c0.332,-0.104 0.594,-0.228 0.786,-0.372l0.3,0.66c-0.216,0.232 -0.566,0.446 -1.05,0.642c-0.484,0.196 -0.974,0.294 -1.47,0.294Zm0.936,-4.092c0.016,-0.224 0.024,-0.396 0.024,-0.516c-0,-1.064 -0.356,-1.596 -1.068,-1.596c-0.392,0 -0.696,0.156 -0.912,0.468c-0.216,0.312 -0.336,0.86 -0.36,1.644l2.316,0Z" style="fill:#838694;fill-rule:nonzero;"/><path d="M40.2,8.856c0.064,0.096 0.21,0.186 0.438,0.27c0.228,0.084 0.458,0.126 0.69,0.126c0.376,0 0.658,-0.078 0.846,-0.234c0.188,-0.156 0.282,-0.362 0.282,-0.618c-0,-0.264 -0.116,-0.478 -0.348,-0.642c-0.232,-0.164 -0.624,-0.366 -1.176,-0.606l-0.336,-0.144c-0.552,-0.232 -0.964,-0.512 -1.236,-0.84c-0.272,-0.328 -0.408,-0.752 -0.408,-1.272c-0,-0.36 0.108,-0.682 0.324,-0.966c0.216,-0.284 0.52,-0.506 0.912,-0.666c0.392,-0.16 0.844,-0.24 1.356,-0.24c0.376,0 0.698,0.024 0.966,0.072c0.268,0.048 0.55,0.112 0.846,0.192c0.16,0.056 0.28,0.088 0.36,0.096l-0,1.572l-0.948,0l-0.276,-0.912c-0.048,-0.08 -0.156,-0.152 -0.324,-0.216c-0.168,-0.064 -0.36,-0.096 -0.576,-0.096c-0.328,0 -0.59,0.07 -0.786,0.21c-0.196,0.14 -0.294,0.334 -0.294,0.582c-0,0.224 0.068,0.41 0.204,0.558c0.136,0.148 0.284,0.262 0.444,0.342c0.16,0.08 0.456,0.212 0.888,0.396c0.432,0.184 0.79,0.36 1.074,0.528c0.284,0.168 0.52,0.386 0.708,0.654c0.188,0.268 0.282,0.594 0.282,0.978c0,0.592 -0.232,1.072 -0.696,1.44c-0.464,0.368 -1.132,0.552 -2.004,0.552c-0.408,-0 -0.774,-0.036 -1.098,-0.108c-0.324,-0.072 -0.698,-0.168 -1.122,-0.288l-0.264,-0.084l0,-1.584l0.996,0l0.276,0.948Z" style="fill:#838694;fill-rule:nonzero;"/></g></svg>