<?xml version="1.0" encoding="UTF-8" standalone="no"?><!DOCTYPE svg PUBLIC "-//W3C//DTD SVG 1.1//EN" "http://www.w3.org/Graphics/SVG/1.1/DTD/svg11.dtd"><svg width="100%" height="100%" viewBox="0 0 240 68" version="1.1" xmlns="http://www.w3.org/2000/svg" xmlns:xlink="http://www.w3.org/1999/xlink" xml:space="preserve" xmlns:serif="http://www.serif.com/" style="fill-rule:evenodd;clip-rule:evenodd;stroke-linejoin:round;stroke-miterlimit:2;"><g><path d="M2.015,27.148c0.136,-0.969 0.617,-1.773 1.442,-2.411c0.825,-0.638 1.833,-0.957 3.024,-0.957l0.128,-0.026c0.663,0.017 1.293,0.068 1.888,0.153c0.595,0.086 1.165,0.179 1.71,0.281c0.357,0.068 0.714,0.136 1.071,0.204c0.358,0.068 0.706,0.119 1.047,0.153c0.187,0.034 0.378,0.056 0.574,0.064l0.663,0.013c0.026,-0 0.047,-0.009 0.064,-0.026l0.255,0c0.017,0.017 0.034,0.026 0.051,0.026l0.051,-0c0.239,-0 0.519,-0.03 0.843,-0.089c0.323,-0.06 0.655,-0.2 0.995,-0.421c-0.153,0.493 -0.426,0.944 -0.817,1.352c-0.391,0.408 -0.816,0.706 -1.276,0.893l0,9.978c0.17,-0.102 0.328,-0.225 0.472,-0.37c0.145,-0.145 0.285,-0.302 0.421,-0.472c0.102,-0.119 0.2,-0.243 0.294,-0.37c0.093,-0.128 0.191,-0.26 0.293,-0.396l0,0.026c0,1.735 -0.68,3.126 -2.041,4.172c-1.361,1.046 -2.85,1.62 -4.466,1.723l-0.434,-0c-1.701,-0 -3.181,-0.592 -4.44,-1.774c-1.259,-1.182 -1.888,-2.658 -1.888,-4.427l-0,-0.051c-0,-0.017 0.008,-0.034 0.025,-0.052l0,-0.102c0,-0.289 0.017,-0.578 0.051,-0.867c0.034,-0.289 0.085,-0.579 0.153,-0.868c0.307,-1.276 0.868,-2.454 1.685,-3.534c0.816,-1.08 1.726,-1.68 2.73,-1.799c-0.578,0.646 -1.063,1.34 -1.454,2.08c-0.392,0.74 -0.63,1.492 -0.715,2.258c-0.017,0.119 -0.03,0.238 -0.038,0.357c-0.009,0.119 -0.013,0.238 -0.013,0.357c-0,1.464 0.464,2.795 1.391,3.994c0.927,1.199 2.19,1.799 3.789,1.799l0.09,0c0.025,0 0.055,-0.008 0.089,-0.025l0.178,-0c0.545,-0 1.072,-0.09 1.583,-0.268c0.51,-0.179 1.003,-0.43 1.48,-0.753l-0,-10.361c-0.102,0.068 -0.209,0.115 -0.319,0.141c-0.111,0.025 -0.226,0.047 -0.345,0.064c-0.187,0.034 -0.37,0.055 -0.548,0.063l-0.549,0.013c-0.017,0.017 -0.034,0.026 -0.051,0.026l-0.051,-0c-0.613,-0 -1.2,-0.039 -1.761,-0.115c-0.561,-0.077 -1.106,-0.166 -1.633,-0.268c-0.527,-0.102 -1.042,-0.192 -1.544,-0.268c-0.502,-0.077 -0.982,-0.115 -1.442,-0.115c-0.17,0 -0.357,0.004 -0.561,0.013c-0.204,0.008 -0.408,0.038 -0.613,0.089c-0.272,0.051 -0.54,0.149 -0.803,0.294c-0.264,0.144 -0.507,0.353 -0.728,0.625l0,-0.026Zm8.421,0.23l0.434,-0l0,6.864c-0.017,0.545 -0.234,1.051 -0.651,1.519c-0.416,0.468 -0.871,0.804 -1.365,1.008c-0.153,0.068 -0.302,0.119 -0.446,0.153c-0.145,0.034 -0.285,0.051 -0.421,0.051l-0.051,-0c-0.017,-0 -0.026,-0.009 -0.026,-0.026l-0.102,0c0.051,-0.068 0.089,-0.127 0.115,-0.178c0.025,-0.051 0.055,-0.094 0.089,-0.128l0.166,-0.395c0.008,-0.026 0.013,-0.056 0.013,-0.09l-0,-6.558l-0.766,0.383l0,-0.842l3.011,-1.761Z" style="fill:#838694;fill-rule:nonzero;"/><path d="M21.716,23.678c-0.086,0.187 -0.175,0.417 -0.268,0.689c-0.094,0.272 -0.166,0.553 -0.217,0.842c-0.034,0.187 -0.064,0.37 -0.09,0.549c-0.025,0.178 -0.038,0.344 -0.038,0.497l0,4.798l3.318,-2.501c0.136,0.238 0.276,0.442 0.421,0.612c0.144,0.17 0.285,0.306 0.421,0.409c0.136,0.119 0.276,0.204 0.421,0.255c0.144,0.051 0.285,0.076 0.421,0.076c0.204,0 0.408,-0.047 0.612,-0.14c0.204,-0.094 0.4,-0.217 0.587,-0.37c0,0.119 -0.008,0.247 -0.025,0.383c-0.017,0.136 -0.043,0.272 -0.077,0.408c-0.068,0.255 -0.174,0.502 -0.319,0.74c-0.145,0.238 -0.336,0.425 -0.574,0.561l-0,6.559c-0,0.051 0.004,0.098 0.013,0.14c0.008,0.043 0.021,0.089 0.038,0.14c0.051,0.171 0.128,0.345 0.23,0.524c0.102,0.178 0.212,0.344 0.331,0.497c0.017,0.017 0.03,0.034 0.039,0.051c0.008,0.017 0.021,0.034 0.038,0.051c-0.153,-0.051 -0.345,-0.098 -0.574,-0.14c-0.23,-0.043 -0.464,-0.072 -0.702,-0.089l-0.179,-0c-0.374,-0 -0.71,0.051 -1.008,0.153c-0.297,0.102 -0.446,0.272 -0.446,0.51l0.025,0.026l-0.025,-0c-0,0.136 0.098,0.28 0.293,0.433c0.196,0.153 0.404,0.341 0.625,0.562c0.222,0.204 0.421,0.446 0.6,0.727c0.179,0.281 0.285,0.608 0.319,0.982c-0.017,0.443 -0.162,0.813 -0.434,1.111c-0.272,0.297 -0.578,0.489 -0.918,0.574c-0.068,0.017 -0.132,0.029 -0.192,0.038c-0.059,0.008 -0.123,0.013 -0.191,0.013c-0.187,-0 -0.366,-0.047 -0.536,-0.141c-0.17,-0.093 -0.298,-0.234 -0.383,-0.421c0.238,-0.085 0.434,-0.212 0.587,-0.382c0.153,-0.171 0.23,-0.366 0.23,-0.587c-0.017,-0.136 -0.051,-0.268 -0.102,-0.396c-0.051,-0.127 -0.102,-0.259 -0.153,-0.395c-0.034,-0.034 -0.064,-0.077 -0.09,-0.128c-0.025,-0.051 -0.047,-0.102 -0.064,-0.153c-0.119,-0.204 -0.221,-0.421 -0.306,-0.651c-0.085,-0.23 -0.127,-0.497 -0.127,-0.804l-0.026,-0.076c0,-0.17 0.026,-0.315 0.077,-0.434c0.051,-0.119 0.11,-0.23 0.178,-0.332c0.017,0 0.03,-0.004 0.039,-0.013c0.008,-0.008 0.012,-0.021 0.012,-0.038c0.051,-0.085 0.107,-0.183 0.166,-0.293c0.06,-0.111 0.098,-0.234 0.115,-0.37l0,-6.788c-0.085,-0 -0.187,-0.022 -0.306,-0.064c-0.119,-0.043 -0.238,-0.098 -0.357,-0.166c-0.102,-0.051 -0.205,-0.115 -0.307,-0.191c-0.102,-0.077 -0.195,-0.149 -0.28,-0.217c-0.051,-0.034 -0.09,-0.064 -0.115,-0.09c-0.026,-0.025 -0.055,-0.055 -0.089,-0.089l-1.251,0.97l0,5.461c0.085,0.034 0.179,0.064 0.281,0.089c0.102,0.026 0.204,0.055 0.306,0.089c0.204,0.086 0.408,0.196 0.612,0.332c0.205,0.136 0.383,0.298 0.536,0.485l-2.271,2.093c-0.476,-0.477 -0.935,-0.83 -1.378,-1.059c-0.442,-0.23 -0.85,-0.345 -1.225,-0.345c-0.085,0 -0.17,0.004 -0.255,0.013c-0.085,0.008 -0.17,0.03 -0.255,0.064c-0.085,0.017 -0.17,0.042 -0.255,0.076c-0.085,0.034 -0.17,0.077 -0.255,0.128c0.102,-0.392 0.293,-0.749 0.574,-1.072c0.28,-0.323 0.633,-0.57 1.059,-0.74l-0,-10.82c-0,-0.187 -0.039,-0.417 -0.115,-0.689c-0.077,-0.272 -0.183,-0.544 -0.319,-0.816c0.425,-0 0.829,-0.077 1.212,-0.23c0.383,-0.153 0.761,-0.349 1.136,-0.587c0.204,-0.119 0.408,-0.255 0.612,-0.408c0.204,-0.153 0.408,-0.307 0.613,-0.46l-0,-0.025Z" style="fill:#838694;fill-rule:nonzero;"/><path d="M29.295,30.262c0.034,0.017 0.068,0.029 0.102,0.038c0.034,0.008 0.068,0.013 0.102,0.013c0.034,-0 0.063,0.004 0.089,0.012c0.026,0.009 0.055,0.013 0.089,0.013c0.034,0.017 0.077,0.026 0.128,0.026l0.128,-0c0.51,-0 1.05,-0.085 1.62,-0.256c0.57,-0.17 1.153,-0.408 1.748,-0.714c0.187,-0.102 0.378,-0.213 0.574,-0.332c0.196,-0.119 0.387,-0.238 0.574,-0.357c0.068,0.238 0.153,0.481 0.255,0.727c0.103,0.247 0.213,0.489 0.332,0.727c0.187,0.392 0.391,0.779 0.613,1.162c0.221,0.382 0.442,0.744 0.663,1.084c0.034,0.068 0.072,0.132 0.115,0.191c0.042,0.06 0.089,0.124 0.14,0.192c-0.119,0.068 -0.289,0.157 -0.51,0.268c-0.221,0.11 -0.451,0.242 -0.689,0.395l-3.139,1.889l0,2.067c0.204,0.034 0.434,0.072 0.689,0.115c0.255,0.042 0.519,0.106 0.791,0.191c0.255,0.068 0.511,0.153 0.766,0.255c0.255,0.102 0.485,0.204 0.689,0.306l0.587,-0.587l0.51,0.434l-2.246,2.527c-0.289,-0.171 -0.586,-0.328 -0.893,-0.473c-0.306,-0.144 -0.621,-0.267 -0.944,-0.37c-0.459,-0.17 -0.914,-0.293 -1.365,-0.37c-0.451,-0.076 -0.889,-0.114 -1.314,-0.114c-0.17,-0 -0.345,0.004 -0.523,0.012c-0.179,0.009 -0.353,0.03 -0.524,0.064c0.154,-0.289 0.328,-0.553 0.524,-0.791c0.195,-0.238 0.446,-0.451 0.752,-0.638l0,-6.277c0,-0.12 -0.021,-0.264 -0.063,-0.434c-0.043,-0.17 -0.098,-0.34 -0.166,-0.511c-0.034,-0.085 -0.068,-0.165 -0.102,-0.242c-0.034,-0.077 -0.068,-0.149 -0.102,-0.217l-0,-0.025Zm2.934,0.561l0,3.573l1.71,-1.072c-0.119,-0.153 -0.234,-0.328 -0.345,-0.523c-0.11,-0.196 -0.217,-0.396 -0.319,-0.6c-0.153,-0.272 -0.285,-0.54 -0.395,-0.804c-0.111,-0.264 -0.2,-0.497 -0.268,-0.702l-0.383,0.128Z" style="fill:#838694;fill-rule:nonzero;"/><path d="M54.839,27.761c-0.154,-0.051 -0.273,-0.175 -0.358,-0.37c-0.085,-0.196 -0.127,-0.421 -0.127,-0.677c-0,-0.187 0.021,-0.382 0.063,-0.586c0.043,-0.205 0.107,-0.409 0.192,-0.613c0.221,-0.561 0.587,-1.076 1.097,-1.544c0.511,-0.468 1.166,-0.702 1.965,-0.702c1.106,0.017 2.033,0.481 2.782,1.391c0.748,0.91 1.403,1.91 1.965,2.999l0.74,1.556c0.119,0.221 0.327,0.375 0.625,0.46c0.297,0.085 0.616,0.127 0.957,0.127l0.255,0l0.74,-0.076c0.119,-0.017 0.234,-0.034 0.344,-0.051c0.111,-0.017 0.2,-0.026 0.268,-0.026l0,-3.266c-0.017,0.017 -0.042,0.03 -0.076,0.038c-0.034,0.009 -0.077,0.013 -0.128,0.013l-0.025,-0c-0.034,0.017 -0.064,0.025 -0.09,0.025l-0.089,0c-0.119,0 -0.247,-0.008 -0.383,-0.025c-0.136,-0.017 -0.272,-0.043 -0.408,-0.077c-0.187,-0.034 -0.366,-0.089 -0.536,-0.166c-0.17,-0.076 -0.323,-0.174 -0.459,-0.293l-0.485,0.434l-0.459,-0.46l2.705,-2.603c0.493,0.324 0.918,0.553 1.275,0.689c0.358,0.137 0.664,0.205 0.919,0.205c0.204,-0 0.396,-0.026 0.574,-0.077c0.179,-0.051 0.353,-0.111 0.523,-0.179c0.069,-0.034 0.137,-0.063 0.205,-0.089c0.068,-0.025 0.136,-0.047 0.204,-0.064c-0.051,0.392 -0.213,0.753 -0.485,1.085c-0.272,0.332 -0.562,0.617 -0.868,0.855c-0.221,0.17 -0.442,0.306 -0.663,0.408c-0.221,0.102 -0.391,0.162 -0.511,0.179l0,14.367l-0.051,-0c-0.272,-0 -0.548,-0.111 -0.829,-0.332c-0.281,-0.221 -0.557,-0.502 -0.829,-0.842c-0.358,-0.46 -0.711,-1 -1.059,-1.621c-0.349,-0.621 -0.685,-1.263 -1.008,-1.926l-0.715,-1.557c-0.459,-0.221 -0.901,-0.374 -1.327,-0.459c-0.425,-0.085 -0.808,-0.128 -1.148,-0.128c-0.323,0 -0.613,0.026 -0.868,0.077c-0.255,0.051 -0.476,0.102 -0.663,0.153c-0.17,0.068 -0.306,0.127 -0.409,0.178c-0.102,0.051 -0.153,0.077 -0.153,0.077l0,2.603c0.034,0.017 0.068,0.025 0.102,0.025c0.034,0 0.077,-0.008 0.128,-0.025l0.204,-0c0.255,-0 0.528,0.025 0.817,0.076c0.289,0.051 0.578,0.128 0.867,0.23c0.239,0.085 0.477,0.191 0.715,0.319c0.238,0.128 0.468,0.276 0.689,0.447l0.281,-0.358l0.433,0.434l-1.964,2.629c-0.63,-0.46 -1.225,-0.774 -1.787,-0.945c-0.561,-0.17 -1.08,-0.255 -1.556,-0.255c-0.409,0 -0.783,0.047 -1.123,0.141c-0.34,0.093 -0.647,0.199 -0.919,0.319c-0.187,0.085 -0.357,0.165 -0.51,0.242c-0.153,0.077 -0.289,0.132 -0.409,0.166c0.239,-0.885 0.638,-1.595 1.2,-2.131c0.561,-0.536 1.25,-0.931 2.067,-1.187l-0,-3.572c-0.017,-0.034 -0.051,-0.064 -0.102,-0.089c-0.051,-0.026 -0.102,-0.047 -0.153,-0.064c-0.017,-0.017 -0.039,-0.026 -0.064,-0.026l-0.141,0c-0.102,0.034 -0.204,0.124 -0.306,0.268c-0.102,0.145 -0.153,0.302 -0.153,0.472l0,0.039c0,0.008 0.009,0.021 0.026,0.038l-0,0.051c-0,0.017 0.004,0.034 0.012,0.051c0.009,0.017 0.013,0.034 0.013,0.051c-0.357,-0 -0.655,-0.14 -0.893,-0.421c-0.238,-0.281 -0.391,-0.591 -0.459,-0.932c-0.017,-0.085 -0.03,-0.165 -0.039,-0.242c-0.008,-0.077 -0.012,-0.149 -0.012,-0.217c-0,-0.544 0.166,-1.012 0.497,-1.403c0.332,-0.392 0.813,-0.587 1.442,-0.587l0.332,-0.026l-0,-4.415l-0.204,0c-0.068,0.017 -0.132,0.03 -0.192,0.039c-0.059,0.008 -0.123,0.012 -0.191,0.012c-0.442,0.086 -0.851,0.29 -1.225,0.613c-0.374,0.323 -0.578,0.706 -0.612,1.148l-0,-0.025Zm8.854,2.577c0.017,0.051 0.03,0.094 0.039,0.128c0.008,0.034 0.021,0.068 0.038,0.102c0.221,0.476 0.442,0.952 0.663,1.429c0.222,0.476 0.451,0.927 0.689,1.352c0.205,0.409 0.413,0.787 0.626,1.136c0.212,0.349 0.412,0.668 0.599,0.957l0,-5.078c0,0.017 -0.038,0.034 -0.114,0.051c-0.077,0.017 -0.175,0.034 -0.294,0.051c-0.136,0.034 -0.285,0.059 -0.446,0.076c-0.162,0.017 -0.336,0.026 -0.524,0.026c-0.102,-0 -0.217,-0.004 -0.344,-0.013c-0.128,-0.009 -0.251,-0.03 -0.37,-0.064c-0.102,-0.017 -0.2,-0.034 -0.294,-0.051c-0.093,-0.017 -0.182,-0.042 -0.268,-0.076l0,-0.026Zm-5.665,-4.134l0,7.247c0.392,-0.136 0.779,-0.238 1.161,-0.306c0.383,-0.068 0.736,-0.102 1.059,-0.102c0.273,0 0.524,0.017 0.753,0.051c0.23,0.034 0.43,0.068 0.6,0.102c0.17,0.034 0.302,0.068 0.395,0.102c0.094,0.034 0.141,0.051 0.141,0.051c-0.221,-0.391 -0.438,-0.821 -0.651,-1.288c-0.213,-0.468 -0.421,-0.94 -0.625,-1.417c-0.476,-1.037 -0.949,-2.003 -1.416,-2.896c-0.468,-0.893 -0.94,-1.399 -1.417,-1.518l0,-0.026Z" style="fill:#838694;fill-rule:nonzero;"/><path d="M71.528,30.262c0.034,0.017 0.068,0.029 0.102,0.038c0.034,0.008 0.068,0.013 0.102,0.013c0.034,-0 0.064,0.004 0.089,0.012c0.026,0.009 0.055,0.013 0.089,0.013c0.034,0.017 0.077,0.026 0.128,0.026l0.128,-0c0.51,-0 1.05,-0.085 1.62,-0.256c0.57,-0.17 1.153,-0.408 1.748,-0.714c0.187,-0.102 0.379,-0.213 0.574,-0.332c0.196,-0.119 0.387,-0.238 0.574,-0.357c0.068,0.238 0.153,0.481 0.256,0.727c0.102,0.247 0.212,0.489 0.331,0.727c0.187,0.392 0.392,0.779 0.613,1.162c0.221,0.382 0.442,0.744 0.663,1.084c0.034,0.068 0.073,0.132 0.115,0.191c0.043,0.06 0.089,0.124 0.14,0.192c-0.119,0.068 -0.289,0.157 -0.51,0.268c-0.221,0.11 -0.451,0.242 -0.689,0.395l-3.139,1.889l0,2.067c0.204,0.034 0.434,0.072 0.689,0.115c0.255,0.042 0.519,0.106 0.791,0.191c0.256,0.068 0.511,0.153 0.766,0.255c0.255,0.102 0.485,0.204 0.689,0.306l0.587,-0.587l0.51,0.434l-2.245,2.527c-0.29,-0.171 -0.587,-0.328 -0.894,-0.473c-0.306,-0.144 -0.621,-0.267 -0.944,-0.37c-0.459,-0.17 -0.914,-0.293 -1.365,-0.37c-0.451,-0.076 -0.889,-0.114 -1.314,-0.114c-0.17,-0 -0.345,0.004 -0.523,0.012c-0.179,0.009 -0.353,0.03 -0.523,0.064c0.153,-0.289 0.327,-0.553 0.523,-0.791c0.195,-0.238 0.446,-0.451 0.752,-0.638l0,-6.277c0,-0.12 -0.021,-0.264 -0.063,-0.434c-0.043,-0.17 -0.098,-0.34 -0.166,-0.511c-0.034,-0.085 -0.068,-0.165 -0.102,-0.242c-0.034,-0.077 -0.068,-0.149 -0.102,-0.217l-0,-0.025Zm2.934,0.561l0,3.573l1.71,-1.072c-0.119,-0.153 -0.234,-0.328 -0.345,-0.523c-0.11,-0.196 -0.216,-0.396 -0.318,-0.6c-0.154,-0.272 -0.285,-0.54 -0.396,-0.804c-0.111,-0.264 -0.2,-0.497 -0.268,-0.702l-0.383,0.128Z" style="fill:#838694;fill-rule:nonzero;"/><path d="M84.95,31.002l2.527,-2.195c0.289,0.085 0.54,0.234 0.752,0.447c0.213,0.212 0.379,0.446 0.498,0.701c0.034,0.102 0.068,0.2 0.102,0.294c0.034,0.093 0.06,0.183 0.077,0.268l-0,6.762c-0,0.408 0.149,0.761 0.446,1.059c0.298,0.298 0.617,0.472 0.957,0.523c0.034,0.017 0.068,0.026 0.102,0.026l0.153,-0c0,0.017 0.005,0.025 0.013,0.025l0.064,0c0.017,0 0.034,-0.008 0.051,-0.025c0.136,-0.017 0.255,-0.085 0.357,-0.204c0.102,-0.119 0.153,-0.256 0.153,-0.409l0,-6.328c-0.17,-0.051 -0.319,-0.132 -0.446,-0.243c-0.128,-0.11 -0.26,-0.251 -0.396,-0.421l-0.306,0.179l-0.306,-0.485l2.679,-1.965c0.187,0.357 0.387,0.642 0.6,0.855c0.213,0.213 0.438,0.362 0.676,0.447c0.068,0.017 0.141,0.034 0.217,0.051c0.077,0.017 0.149,0.025 0.217,0.025c0.051,0 0.098,-0.004 0.14,-0.013l0.345,-0.102c0.068,-0.025 0.127,-0.055 0.178,-0.089c-0.034,0.391 -0.144,0.732 -0.331,1.021c-0.187,0.289 -0.443,0.519 -0.766,0.689l0,6.354c0,0.102 0.017,0.204 0.051,0.306c0.034,0.102 0.077,0.213 0.128,0.332c0.051,0.085 0.098,0.166 0.14,0.242c0.043,0.077 0.089,0.149 0.141,0.217l-0.154,0c-0.051,0 -0.102,-0.008 -0.153,-0.025l-0.306,-0c-0.374,-0 -0.787,0.046 -1.238,0.14c-0.45,0.094 -0.905,0.225 -1.365,0.395c-0.323,0.12 -0.646,0.251 -0.969,0.396c-0.324,0.145 -0.638,0.293 -0.945,0.447c-0.527,-0.051 -1.016,-0.247 -1.467,-0.587c-0.451,-0.341 -0.821,-0.766 -1.11,-1.276c-0.187,0.102 -0.404,0.229 -0.651,0.383l-0.944,0.586c-0.059,0.034 -0.115,0.077 -0.166,0.128c-0.187,0.119 -0.366,0.242 -0.536,0.37c-0.17,0.128 -0.323,0.242 -0.459,0.345c-0.578,-0.579 -1.127,-0.966 -1.646,-1.162c-0.519,-0.195 -0.957,-0.293 -1.314,-0.293c-0.102,0 -0.2,0.004 -0.294,0.013c-0.093,0.008 -0.174,0.03 -0.242,0.064c0.051,-0.205 0.145,-0.4 0.281,-0.587c0.136,-0.187 0.28,-0.349 0.433,-0.485c0.068,-0.051 0.132,-0.098 0.192,-0.141c0.059,-0.042 0.115,-0.072 0.166,-0.089l-0,-5.742c-0.085,-0.238 -0.221,-0.425 -0.409,-0.561c-0.187,-0.136 -0.391,-0.23 -0.612,-0.281c-0.085,-0.017 -0.166,-0.029 -0.242,-0.038c-0.077,-0.008 -0.149,-0.013 -0.217,-0.013l-0.077,-0.025l2.501,-2.475c0.493,0.153 0.885,0.425 1.174,0.816c0.289,0.391 0.451,0.859 0.485,1.404l-0,6.507c0.102,0.034 0.208,0.068 0.319,0.102c0.11,0.034 0.225,0.076 0.344,0.127c0.204,0.069 0.4,0.154 0.587,0.256c0.187,0.102 0.349,0.212 0.485,0.331c0.034,-0.034 0.068,-0.063 0.102,-0.089c0.034,-0.025 0.068,-0.047 0.102,-0.064c0.034,-0.034 0.064,-0.059 0.089,-0.076c0.026,-0.017 0.056,-0.034 0.09,-0.051c0.051,-0.034 0.102,-0.068 0.153,-0.102c0.051,-0.034 0.102,-0.06 0.153,-0.077l-0,-5.793c-0.051,-0.323 -0.196,-0.578 -0.434,-0.765c-0.238,-0.187 -0.493,-0.298 -0.766,-0.332l-0.153,0l0,-0.025Z" style="fill:#838694;fill-rule:nonzero;"/><path d="M122.131,23.474c0.306,0.391 0.595,0.728 0.867,1.009c0.273,0.281 0.545,0.49 0.817,0.626c0.102,0.069 0.208,0.115 0.319,0.141c0.111,0.025 0.217,0.038 0.319,0.038c0.085,0 0.17,-0.013 0.255,-0.038c0.085,-0.026 0.17,-0.055 0.255,-0.09l0.256,-0.127c-0,0.085 -0.005,0.17 -0.013,0.255c-0.009,0.085 -0.021,0.17 -0.039,0.256c-0.051,0.187 -0.131,0.362 -0.242,0.524c-0.111,0.162 -0.268,0.302 -0.472,0.421l-0,11.117c-0.085,0.801 -0.425,1.423 -1.021,1.866c-0.595,0.443 -1.242,0.733 -1.939,0.869c-0.102,0.034 -0.209,0.06 -0.319,0.077c-0.111,0.017 -0.217,0.025 -0.319,0.025c-0.119,0 -0.243,0 -0.37,0c-0.128,0 -0.251,0.009 -0.37,0.026c-0.749,0.034 -1.442,0.16 -2.08,0.38c-0.638,0.22 -0.999,0.592 -1.084,1.116l-0,0.102c0.017,0.118 0.068,0.224 0.153,0.317c0.085,0.093 0.195,0.14 0.331,0.14l0.154,-0c0.204,-0 0.387,-0.034 0.548,-0.102c0.162,-0.068 0.319,-0.144 0.472,-0.228c0.119,-0.085 0.234,-0.169 0.345,-0.254c0.11,-0.085 0.234,-0.169 0.37,-0.254c0.272,-0.186 0.599,-0.363 0.982,-0.532c0.383,-0.169 0.864,-0.262 1.442,-0.279c0.051,-0 0.106,-0 0.166,-0c0.059,-0 0.115,0.008 0.166,0.025c0.51,0.051 0.982,0.241 1.416,0.571c0.434,0.329 0.668,0.799 0.702,1.407c-0,0.525 -0.187,0.939 -0.562,1.244c-0.374,0.304 -0.782,0.49 -1.225,0.557l-0.357,0.026c-0.153,0 -0.302,-0.017 -0.446,-0.051c-0.145,-0.034 -0.285,-0.085 -0.421,-0.153l-0,-0.562c0.119,0.034 0.251,0.068 0.395,0.103c0.145,0.034 0.294,0.051 0.447,0.051l0.127,-0c0.221,-0.017 0.426,-0.085 0.613,-0.203c0.187,-0.119 0.289,-0.313 0.306,-0.583c-0.017,-0.169 -0.072,-0.3 -0.166,-0.393c-0.093,-0.093 -0.225,-0.157 -0.395,-0.19c-0.392,0.017 -0.753,0.118 -1.085,0.304c-0.332,0.186 -0.659,0.389 -0.982,0.608c-0.017,0.017 -0.034,0.034 -0.051,0.051c-0.017,0.017 -0.034,0.025 -0.052,0.025c-0.357,0.254 -0.718,0.487 -1.084,0.7c-0.366,0.212 -0.778,0.319 -1.238,0.319l-0.357,-0.026c-0.561,-0.085 -1.067,-0.322 -1.518,-0.712c-0.451,-0.39 -0.677,-0.872 -0.677,-1.447c0.017,-0.557 0.23,-1.026 0.638,-1.406c0.409,-0.381 0.868,-0.655 1.378,-0.824c-0.731,-0.12 -1.369,-0.435 -1.913,-0.946c-0.545,-0.511 -0.817,-1.134 -0.817,-1.866l-0,-4.321c-0.017,-0.119 -0.072,-0.221 -0.166,-0.306c-0.093,-0.086 -0.208,-0.137 -0.344,-0.154l-0.102,-0.025c-0.222,0.017 -0.409,0.102 -0.562,0.255c-0.153,0.154 -0.247,0.316 -0.281,0.486c-0.017,0.034 -0.025,0.064 -0.025,0.09l-0,0.089c-0.204,-0.085 -0.357,-0.221 -0.459,-0.409c-0.103,-0.187 -0.171,-0.392 -0.205,-0.613c-0.017,-0.103 -0.029,-0.209 -0.038,-0.32c-0.008,-0.111 -0.013,-0.209 -0.013,-0.294c0,-0.511 0.183,-0.958 0.549,-1.342c0.366,-0.384 0.821,-0.575 1.365,-0.575l0.281,-0.026l-0,-3.476c-0.068,-0.154 -0.17,-0.286 -0.306,-0.397c-0.136,-0.111 -0.281,-0.183 -0.434,-0.217c-0.034,-0.017 -0.068,-0.026 -0.102,-0.026l-0.23,0c-0.272,0.051 -0.523,0.192 -0.753,0.421c-0.229,0.23 -0.353,0.507 -0.37,0.83c-0.119,-0.136 -0.204,-0.285 -0.255,-0.447c-0.051,-0.161 -0.076,-0.336 -0.076,-0.523c-0,-0.102 0.008,-0.204 0.025,-0.306c0.017,-0.102 0.043,-0.204 0.077,-0.306c0.153,-0.511 0.463,-0.979 0.931,-1.404c0.468,-0.425 1.034,-0.638 1.697,-0.638c0.8,0 1.416,0.285 1.85,0.855c0.434,0.57 0.651,1.357 0.651,2.361l-0,0.204c0.034,-0 0.068,-0.013 0.102,-0.039l0.306,-0.191c0.102,-0.068 0.196,-0.136 0.281,-0.204c0.085,-0.068 0.153,-0.128 0.204,-0.179l0,-2.781l0.74,-0l0,2.22c0.51,-0.289 1.021,-0.638 1.531,-1.046c0.511,-0.409 1.012,-0.826 1.506,-1.251l-0,-0.025Zm-3.037,11.33l0,4.874c0.068,0.034 0.157,0.055 0.268,0.064c0.111,0.008 0.234,0.012 0.37,0.012c0.119,0 0.238,-0.008 0.357,-0.025c0.119,-0.017 0.247,-0.043 0.383,-0.077c0.306,-0.068 0.596,-0.2 0.868,-0.395c0.272,-0.196 0.442,-0.489 0.51,-0.881l0,-3.596c-0.306,-0.069 -0.578,-0.116 -0.817,-0.142c-0.238,-0.025 -0.416,-0.038 -0.535,-0.038l-0.256,-0c-0.085,0.017 -0.229,0.038 -0.433,0.063c-0.205,0.026 -0.443,0.081 -0.715,0.166l0,-0.025Zm-0.74,-7.528c-0.068,0.068 -0.14,0.127 -0.217,0.179l-0.446,0.293c-0.068,0.043 -0.137,0.081 -0.205,0.115l0,10.539c0,0.051 0.005,0.098 0.013,0.14c0.009,0.043 0.021,0.09 0.038,0.141c0.052,0.17 0.141,0.331 0.268,0.484c0.128,0.154 0.268,0.264 0.421,0.332c0.017,0 0.039,0.004 0.064,0.013c0.026,0.008 0.047,0.013 0.064,0.013l0,-12.249Zm0.74,3.266l0,3.496c0.068,0 0.153,-0.012 0.255,-0.038c0.102,-0.026 0.204,-0.047 0.307,-0.064c0.153,-0.017 0.301,-0.034 0.446,-0.051c0.145,-0.017 0.234,-0.025 0.268,-0.025c0.085,-0 0.259,0.012 0.523,0.038c0.264,0.025 0.549,0.072 0.855,0.14c0.017,0 0.034,0.005 0.051,0.013c0.017,0.009 0.034,0.013 0.051,0.013l0,-3.522c-0.238,0.085 -0.468,0.145 -0.689,0.179c-0.221,0.034 -0.391,0.051 -0.51,0.051l-0.077,-0l0,-0.026l-0.153,0l0,0.026l-0.077,-0c-0.085,-0 -0.204,-0.009 -0.357,-0.026c-0.153,-0.017 -0.314,-0.042 -0.485,-0.076l-0.408,-0.102l0,-0.026Zm1.148,-4.67c-0.068,0.085 -0.153,0.166 -0.255,0.243c-0.102,0.076 -0.204,0.157 -0.306,0.242c-0.102,0.068 -0.2,0.141 -0.293,0.217c-0.094,0.077 -0.192,0.14 -0.294,0.192l0,2.985c0.068,0.068 0.162,0.115 0.281,0.141c0.119,0.025 0.238,0.046 0.357,0.063c0.17,0.017 0.323,0.026 0.459,0.026l0.358,-0l-0,0.025l0.37,-0.012c0.11,-0.009 0.225,-0.022 0.344,-0.039c0.102,-0.017 0.204,-0.042 0.306,-0.076c0.102,-0.034 0.196,-0.077 0.281,-0.128l0,-3.062c-0.119,-0 -0.23,-0.013 -0.332,-0.038c-0.102,-0.026 -0.195,-0.064 -0.28,-0.115c-0.153,-0.068 -0.311,-0.153 -0.472,-0.255c-0.162,-0.102 -0.336,-0.23 -0.524,-0.383l0,-0.026Z" style="fill:#838694;fill-rule:nonzero;"/><path d="M126.494,37.356c0,-0.766 0.234,-1.459 0.702,-2.08c0.468,-0.621 1.042,-1.144 1.723,-1.569l-1.812,-2.093l-0.664,-0.638c0.528,-0.221 1.034,-0.485 1.519,-0.791c0.485,-0.306 0.914,-0.689 1.288,-1.148c0.034,0.034 0.064,0.076 0.09,0.127c0.025,0.051 0.055,0.094 0.089,0.128c0.221,0.34 0.472,0.659 0.753,0.957c0.281,0.297 0.566,0.455 0.855,0.472l0.051,-0c0.136,0.017 0.297,-0.034 0.485,-0.153c0.187,-0.119 0.374,-0.272 0.561,-0.46c0.119,-0.102 0.242,-0.221 0.37,-0.357c0.128,-0.136 0.242,-0.281 0.345,-0.434c0.051,-0.034 0.093,-0.076 0.127,-0.127c0.034,-0.051 0.068,-0.102 0.102,-0.153c0.17,0.238 0.332,0.438 0.485,0.599c0.153,0.162 0.306,0.294 0.459,0.396c0.102,0.068 0.213,0.119 0.332,0.153c0.119,0.034 0.238,0.051 0.357,0.051c0.137,0 0.277,-0.017 0.421,-0.051c0.145,-0.034 0.302,-0.085 0.473,-0.153l-0,0.127c-0.034,0.324 -0.149,0.634 -0.345,0.932c-0.196,0.298 -0.455,0.532 -0.778,0.702l-0,5.435c0.017,0.34 0.157,0.63 0.421,0.868c0.263,0.238 0.582,0.357 0.957,0.357l0.025,-0c0.017,-0 0.034,-0.009 0.051,-0.026l0.051,0l-1.505,2.17c-0.034,0.017 -0.073,0.029 -0.115,0.038c-0.043,0.008 -0.081,0.013 -0.115,0.013c-0.034,0.017 -0.068,0.025 -0.102,0.025l-0.255,0c-0.374,-0.051 -0.732,-0.234 -1.072,-0.549c-0.34,-0.314 -0.621,-0.693 -0.842,-1.135l-1.888,1.659l-0.205,-0c-0.85,-0.051 -1.629,-0.358 -2.335,-0.919c-0.706,-0.562 -1.059,-1.327 -1.059,-2.297l0,-0.076Zm5.028,-1.787l-0.511,0.434l-1.633,-1.812c-0.068,0.102 -0.128,0.205 -0.179,0.307c-0.051,0.102 -0.093,0.195 -0.127,0.28c-0.085,0.187 -0.149,0.375 -0.192,0.562c-0.042,0.187 -0.063,0.374 -0.063,0.561c-0,0.681 0.234,1.276 0.701,1.786c0.468,0.511 0.983,0.791 1.544,0.843l0.153,-0c0.085,-0 0.17,-0.009 0.256,-0.026c0.085,-0.017 0.17,-0.043 0.255,-0.077l0.255,-0.102l-0,-6.354c-0.051,0 -0.115,-0.012 -0.191,-0.038c-0.077,-0.026 -0.149,-0.055 -0.217,-0.089c-0.085,-0.068 -0.175,-0.141 -0.268,-0.217c-0.094,-0.077 -0.166,-0.158 -0.217,-0.243c-0.17,0.239 -0.379,0.417 -0.625,0.536c-0.247,0.119 -0.498,0.196 -0.753,0.23l-0.409,0.025c-0.153,0 -0.301,-0.012 -0.446,-0.038c-0.145,-0.025 -0.285,-0.047 -0.421,-0.064l3.088,3.496Z" style="fill:#838694;fill-rule:nonzero;"/><path d="M142.188,31.002l2.527,-2.195c0.289,0.085 0.54,0.234 0.752,0.447c0.213,0.212 0.379,0.446 0.498,0.701c0.034,0.102 0.068,0.2 0.102,0.294c0.034,0.093 0.06,0.183 0.077,0.268l-0,6.762c-0,0.408 0.149,0.761 0.446,1.059c0.298,0.298 0.617,0.472 0.957,0.523c0.034,0.017 0.068,0.026 0.102,0.026l0.153,-0c0,0.017 0.005,0.025 0.013,0.025l0.064,0c0.017,0 0.034,-0.008 0.051,-0.025c0.136,-0.017 0.255,-0.085 0.357,-0.204c0.102,-0.119 0.153,-0.256 0.153,-0.409l0,-6.328c-0.17,-0.051 -0.319,-0.132 -0.446,-0.243c-0.128,-0.11 -0.26,-0.251 -0.396,-0.421l-0.306,0.179l-0.306,-0.485l2.679,-1.965c0.187,0.357 0.387,0.642 0.6,0.855c0.213,0.213 0.438,0.362 0.676,0.447c0.068,0.017 0.141,0.034 0.217,0.051c0.077,0.017 0.149,0.025 0.217,0.025c0.051,0 0.098,-0.004 0.14,-0.013l0.345,-0.102c0.068,-0.025 0.127,-0.055 0.178,-0.089c-0.034,0.391 -0.144,0.732 -0.331,1.021c-0.187,0.289 -0.443,0.519 -0.766,0.689l0,6.354c0,0.102 0.017,0.204 0.051,0.306c0.034,0.102 0.077,0.213 0.128,0.332c0.051,0.085 0.098,0.166 0.14,0.242c0.043,0.077 0.089,0.149 0.14,0.217l-0.153,0c-0.051,0 -0.102,-0.008 -0.153,-0.025l-0.306,-0c-0.374,-0 -0.787,0.046 -1.238,0.14c-0.45,0.094 -0.905,0.225 -1.365,0.395c-0.323,0.12 -0.646,0.251 -0.97,0.396c-0.323,0.145 -0.637,0.293 -0.944,0.447c-0.527,-0.051 -1.016,-0.247 -1.467,-0.587c-0.451,-0.341 -0.821,-0.766 -1.11,-1.276c-0.187,0.102 -0.404,0.229 -0.651,0.383l-0.944,0.586c-0.06,0.034 -0.115,0.077 -0.166,0.128c-0.187,0.119 -0.366,0.242 -0.536,0.37c-0.17,0.128 -0.323,0.242 -0.459,0.345c-0.579,-0.579 -1.127,-0.966 -1.646,-1.162c-0.519,-0.195 -0.957,-0.293 -1.314,-0.293c-0.102,0 -0.2,0.004 -0.294,0.013c-0.093,0.008 -0.174,0.03 -0.242,0.064c0.051,-0.205 0.144,-0.4 0.281,-0.587c0.136,-0.187 0.28,-0.349 0.433,-0.485c0.068,-0.051 0.132,-0.098 0.192,-0.141c0.059,-0.042 0.115,-0.072 0.166,-0.089l-0,-5.742c-0.085,-0.238 -0.221,-0.425 -0.409,-0.561c-0.187,-0.136 -0.391,-0.23 -0.612,-0.281c-0.085,-0.017 -0.166,-0.029 -0.243,-0.038c-0.076,-0.008 -0.148,-0.013 -0.216,-0.013l-0.077,-0.025l2.501,-2.475c0.493,0.153 0.884,0.425 1.174,0.816c0.289,0.391 0.451,0.859 0.485,1.404l-0,6.507c0.102,0.034 0.208,0.068 0.319,0.102c0.11,0.034 0.225,0.076 0.344,0.127c0.204,0.069 0.4,0.154 0.587,0.256c0.187,0.102 0.349,0.212 0.485,0.331c0.034,-0.034 0.068,-0.063 0.102,-0.089c0.034,-0.025 0.068,-0.047 0.102,-0.064c0.034,-0.034 0.064,-0.059 0.089,-0.076c0.026,-0.017 0.056,-0.034 0.09,-0.051c0.051,-0.034 0.102,-0.068 0.153,-0.102c0.051,-0.034 0.102,-0.06 0.153,-0.077l-0,-5.793c-0.051,-0.323 -0.196,-0.578 -0.434,-0.765c-0.238,-0.187 -0.493,-0.298 -0.766,-0.332l-0.153,0l0,-0.025Z" style="fill:#838694;fill-rule:nonzero;"/><path d="M153.467,25.77c0.035,0.017 0.069,0.03 0.103,0.039c0.034,0.008 0.068,0.012 0.102,0.012c0.017,0 0.034,0.005 0.051,0.013c0.017,0.009 0.034,0.013 0.051,0.013l0.127,-0c0.409,-0 0.885,-0.141 1.429,-0.421c0.545,-0.281 1.157,-0.693 1.838,-1.238c-0.017,0.034 -0.039,0.081 -0.064,0.14l-0.166,0.434c-0.034,0.094 -0.068,0.192 -0.102,0.294c-0.034,0.153 -0.068,0.306 -0.102,0.459c-0.034,0.153 -0.051,0.281 -0.051,0.383l-0,5.333l3.19,-2.296c0.102,0.221 0.221,0.455 0.357,0.701c0.136,0.247 0.272,0.498 0.408,0.753c0.051,0.068 0.102,0.145 0.153,0.23c0.051,0.085 0.102,0.17 0.153,0.255c0.171,0.289 0.341,0.561 0.511,0.817c0.17,0.255 0.323,0.467 0.459,0.638l-2.475,1.607c0.391,0.664 0.697,1.289 0.918,1.876c0.222,0.587 0.434,1.093 0.638,1.518c0.171,0.391 0.353,0.702 0.549,0.932c0.196,0.229 0.447,0.344 0.753,0.344c0.068,0 0.144,-0.008 0.23,-0.025c0.085,-0.017 0.17,-0.034 0.255,-0.051c0.034,-0 0.064,-0.005 0.089,-0.013c0.026,-0.009 0.055,-0.021 0.089,-0.039l-2.424,2.323c-0.646,-0.221 -1.097,-0.536 -1.352,-0.945c-0.256,-0.408 -0.477,-0.91 -0.664,-1.505c-0.119,-0.442 -0.259,-0.923 -0.421,-1.442c-0.162,-0.519 -0.387,-1.076 -0.676,-1.671l-0.74,0.51l-0,1.99c0.051,0.034 0.106,0.06 0.166,0.077c0.059,0.017 0.115,0.034 0.166,0.051c0.221,0.085 0.433,0.213 0.638,0.383c0.204,0.17 0.348,0.349 0.433,0.536l-1.99,1.939c-0.238,-0.306 -0.527,-0.578 -0.868,-0.816c-0.34,-0.239 -0.68,-0.409 -1.02,-0.511c-0.154,-0.051 -0.302,-0.089 -0.447,-0.115c-0.145,-0.025 -0.285,-0.038 -0.421,-0.038l-0.179,0c-0.034,0 -0.064,0.004 -0.089,0.013c-0.026,0.008 -0.055,0.013 -0.089,0.013c0.017,-0.29 0.123,-0.545 0.319,-0.766c0.195,-0.221 0.446,-0.417 0.752,-0.587l0,-11.049c-0.017,-0.188 -0.063,-0.358 -0.14,-0.511c-0.076,-0.153 -0.166,-0.28 -0.268,-0.383c-0.034,-0.034 -0.064,-0.068 -0.089,-0.102c-0.026,-0.034 -0.055,-0.059 -0.09,-0.076l0,-0.026Zm4.747,5.385l-1.531,1.02l-0,2.705l2.756,-1.811c-0.085,-0.068 -0.179,-0.175 -0.281,-0.319c-0.102,-0.145 -0.213,-0.302 -0.332,-0.472l-0.306,-0.511c-0.051,-0.102 -0.102,-0.204 -0.153,-0.306c-0.051,-0.102 -0.102,-0.196 -0.153,-0.281l-0,-0.025Z" style="fill:#838694;fill-rule:nonzero;"/><path d="M180.747,27.148c0.136,-0.969 0.616,-1.773 1.442,-2.411c0.825,-0.638 1.833,-0.957 3.023,-0.957l0.128,-0.026c0.664,0.017 1.293,0.068 1.888,0.153c0.596,0.086 1.166,0.179 1.71,0.281c0.357,0.068 0.715,0.136 1.072,0.204c0.357,0.068 0.706,0.119 1.046,0.153c0.187,0.034 0.379,0.056 0.574,0.064l0.664,0.013c0.025,-0 0.047,-0.009 0.064,-0.026l0.255,0c0.017,0.017 0.034,0.026 0.051,0.026l0.051,-0c0.238,-0 0.519,-0.03 0.842,-0.089c0.323,-0.06 0.655,-0.2 0.995,-0.421c-0.153,0.493 -0.425,0.944 -0.816,1.352c-0.392,0.408 -0.817,0.706 -1.276,0.893l-0,9.978c0.17,-0.102 0.327,-0.225 0.472,-0.37c0.144,-0.145 0.285,-0.302 0.421,-0.472c0.102,-0.119 0.2,-0.243 0.293,-0.37c0.094,-0.128 0.192,-0.26 0.294,-0.396l-0,0.026c-0,1.735 -0.681,3.126 -2.042,4.172c-1.361,1.046 -2.849,1.62 -4.465,1.723l-0.434,-0c-1.701,-0 -3.182,-0.592 -4.44,-1.774c-1.259,-1.182 -1.889,-2.658 -1.889,-4.427l0,-0.051c0,-0.017 0.009,-0.034 0.026,-0.052l-0,-0.102c-0,-0.289 0.017,-0.578 0.051,-0.867c0.034,-0.289 0.085,-0.579 0.153,-0.868c0.306,-1.276 0.867,-2.454 1.684,-3.534c0.817,-1.08 1.727,-1.68 2.731,-1.799c-0.579,0.646 -1.064,1.34 -1.455,2.08c-0.391,0.74 -0.629,1.492 -0.715,2.258c-0.017,0.119 -0.029,0.238 -0.038,0.357c-0.008,0.119 -0.013,0.238 -0.013,0.357c0,1.464 0.464,2.795 1.391,3.994c0.927,1.199 2.191,1.799 3.79,1.799l0.089,0c0.026,0 0.055,-0.008 0.089,-0.025l0.179,-0c0.544,-0 1.072,-0.09 1.582,-0.268c0.51,-0.179 1.004,-0.43 1.48,-0.753l0,-10.361c-0.102,0.068 -0.208,0.115 -0.319,0.141c-0.11,0.025 -0.225,0.047 -0.344,0.064c-0.187,0.034 -0.37,0.055 -0.549,0.063l-0.549,0.013c-0.017,0.017 -0.034,0.026 -0.051,0.026l-0.051,-0c-0.612,-0 -1.199,-0.039 -1.76,-0.115c-0.562,-0.077 -1.106,-0.166 -1.634,-0.268c-0.527,-0.102 -1.042,-0.192 -1.543,-0.268c-0.502,-0.077 -0.983,-0.115 -1.442,-0.115c-0.17,0 -0.358,0.004 -0.562,0.013c-0.204,0.008 -0.408,0.038 -0.612,0.089c-0.272,0.051 -0.54,0.149 -0.804,0.294c-0.264,0.144 -0.506,0.353 -0.727,0.625l-0,-0.026Zm8.421,0.23l0.434,-0l-0,6.864c-0.017,0.545 -0.234,1.051 -0.651,1.519c-0.417,0.468 -0.872,0.804 -1.365,1.008c-0.153,0.068 -0.302,0.119 -0.447,0.153c-0.144,0.034 -0.285,0.051 -0.421,0.051l-0.051,-0c-0.017,-0 -0.025,-0.009 -0.025,-0.026l-0.103,0c0.051,-0.068 0.09,-0.127 0.115,-0.178c0.026,-0.051 0.056,-0.094 0.09,-0.128l0.165,-0.395c0.009,-0.026 0.013,-0.056 0.013,-0.09l0,-6.558l-0.765,0.383l-0,-0.842l3.011,-1.761Z" style="fill:#838694;fill-rule:nonzero;"/><path d="M198.15,29.088c0.341,0.459 0.638,0.787 0.894,0.982c0.255,0.196 0.501,0.294 0.74,0.294c0.102,-0 0.204,-0.013 0.306,-0.039c0.102,-0.025 0.204,-0.055 0.306,-0.089c0.051,-0.034 0.102,-0.064 0.153,-0.089c0.051,-0.026 0.102,-0.047 0.153,-0.064c0,0.068 -0.004,0.14 -0.013,0.217c-0.008,0.076 -0.029,0.157 -0.063,0.242c-0.068,0.306 -0.217,0.596 -0.447,0.868c-0.23,0.272 -0.498,0.468 -0.804,0.587l0,5.614c0.068,0.357 0.213,0.604 0.434,0.74c0.221,0.136 0.459,0.213 0.715,0.23l0.331,-0c0.102,-0.017 0.196,-0.034 0.281,-0.051c0.085,-0.017 0.162,-0.043 0.23,-0.077l-2.195,2.195c-0.578,-0.017 -1.097,-0.217 -1.557,-0.6c-0.459,-0.383 -0.706,-0.863 -0.74,-1.442l0,-6.584c-0.136,-0.034 -0.259,-0.102 -0.37,-0.204c-0.11,-0.102 -0.208,-0.212 -0.293,-0.332l-0.383,0.256l-0.306,-0.409c0.051,-0.017 0.098,-0.042 0.14,-0.076c0.043,-0.034 0.081,-0.068 0.115,-0.102c0.153,-0.119 0.306,-0.243 0.459,-0.37c0.154,-0.128 0.298,-0.251 0.434,-0.37c0.272,-0.239 0.536,-0.468 0.791,-0.689c0.256,-0.222 0.485,-0.426 0.689,-0.613l0,-0.025Zm-2.067,-1.736c0.136,-0.068 0.268,-0.144 0.396,-0.229l0.651,-0.409c0.17,-0.119 0.344,-0.246 0.523,-0.382c0.178,-0.136 0.378,-0.29 0.599,-0.46c0.273,0.358 0.519,0.604 0.74,0.74c0.222,0.136 0.426,0.205 0.613,0.205c0.085,-0 0.17,-0.013 0.255,-0.039c0.085,-0.025 0.17,-0.055 0.255,-0.089c0.017,-0 0.039,-0.004 0.064,-0.013c0.026,-0.008 0.047,-0.021 0.064,-0.038c0.017,-0 0.038,-0.009 0.064,-0.026c0.025,-0.017 0.046,-0.025 0.063,-0.025l0,0.153c0,0.408 -0.157,0.757 -0.472,1.046c-0.314,0.289 -0.659,0.485 -1.033,0.587c-0.068,0.017 -0.145,0.03 -0.23,0.038l-0.242,0.013c-0.009,0 -0.013,-0.008 -0.013,-0.025l-0.459,-0.026c-0.238,-0.034 -0.464,-0.115 -0.677,-0.242c-0.212,-0.128 -0.361,-0.328 -0.446,-0.6l-0.459,0.255l-0.256,-0.434Z" style="fill:#838694;fill-rule:nonzero;"/><path d="M202.361,31.282l2.399,-2.501c0.493,0.171 0.906,0.494 1.237,0.97c0.332,0.477 0.549,0.987 0.651,1.531l3.19,-2.526c0.442,0.238 0.829,0.566 1.161,0.982c0.332,0.417 0.54,0.872 0.625,1.366l2.833,-2.195c0.357,0.442 0.667,0.77 0.931,0.983c0.264,0.212 0.523,0.336 0.778,0.37l0.128,-0c0.153,-0 0.327,-0.034 0.523,-0.103c0.196,-0.068 0.396,-0.161 0.6,-0.28l-0,0.076c-0,0.119 -0.009,0.243 -0.026,0.37c-0.017,0.128 -0.042,0.251 -0.076,0.37c-0.068,0.187 -0.153,0.366 -0.255,0.536c-0.103,0.17 -0.239,0.323 -0.409,0.46l0,6.047c0.085,0.239 0.196,0.426 0.332,0.562c0.136,0.136 0.315,0.204 0.536,0.204c0.068,0 0.14,-0.008 0.217,-0.026c0.076,-0.017 0.157,-0.034 0.242,-0.051l0.23,-0.102l-2.475,2.578l-0.102,-0c-0.426,-0 -0.792,-0.17 -1.098,-0.511c-0.306,-0.34 -0.476,-0.706 -0.51,-1.097l-0,-7.094c-0.068,-0 -0.136,-0.013 -0.204,-0.038c-0.068,-0.026 -0.136,-0.056 -0.204,-0.09c-0.188,-0.085 -0.366,-0.191 -0.536,-0.319c-0.17,-0.127 -0.315,-0.259 -0.434,-0.395l-1.123,0.842l0,5.691c0.289,0.085 0.566,0.208 0.829,0.37c0.264,0.161 0.507,0.353 0.728,0.574l-2.067,2.067c-0.494,-0.477 -0.962,-0.825 -1.404,-1.047c-0.442,-0.221 -0.833,-0.331 -1.174,-0.331c-0.136,-0 -0.272,0.021 -0.408,0.064c-0.136,0.042 -0.247,0.097 -0.332,0.165c0.051,-0.374 0.209,-0.706 0.472,-0.995c0.264,-0.289 0.549,-0.536 0.855,-0.74l0,-5.461c0,-0.289 -0.068,-0.561 -0.204,-0.816c-0.136,-0.256 -0.349,-0.468 -0.638,-0.638l-1.786,1.378l-0,5.41c0.085,0.034 0.17,0.063 0.255,0.089c0.085,0.025 0.179,0.055 0.281,0.089c0.153,0.085 0.31,0.183 0.472,0.294c0.161,0.11 0.293,0.225 0.395,0.344l-2.169,2.195c-0.153,-0.221 -0.31,-0.413 -0.472,-0.574c-0.161,-0.162 -0.327,-0.294 -0.497,-0.396c-0.222,-0.153 -0.443,-0.259 -0.664,-0.319c-0.221,-0.059 -0.425,-0.089 -0.612,-0.089c-0.153,-0 -0.302,0.017 -0.447,0.051c-0.145,0.034 -0.276,0.085 -0.395,0.153c0.085,-0.357 0.246,-0.676 0.484,-0.957c0.239,-0.281 0.528,-0.498 0.868,-0.651l0,-5.69c-0.068,-0.341 -0.251,-0.596 -0.549,-0.766c-0.297,-0.17 -0.625,-0.289 -0.982,-0.357l-0,-0.026Z" style="fill:#838694;fill-rule:nonzero;"/><path d="M220.173,30.262c0.034,0.017 0.068,0.029 0.102,0.038c0.034,0.008 0.068,0.013 0.102,0.013c0.034,-0 0.064,0.004 0.089,0.012c0.026,0.009 0.056,0.013 0.09,0.013c0.034,0.017 0.076,0.026 0.127,0.026l0.128,-0c0.51,-0 1.05,-0.085 1.62,-0.256c0.57,-0.17 1.153,-0.408 1.748,-0.714c0.187,-0.102 0.379,-0.213 0.574,-0.332c0.196,-0.119 0.387,-0.238 0.575,-0.357c0.068,0.238 0.153,0.481 0.255,0.727c0.102,0.247 0.212,0.489 0.331,0.727c0.188,0.392 0.392,0.779 0.613,1.162c0.221,0.382 0.442,0.744 0.663,1.084c0.034,0.068 0.073,0.132 0.115,0.191c0.043,0.06 0.09,0.124 0.141,0.192c-0.119,0.068 -0.29,0.157 -0.511,0.268c-0.221,0.11 -0.451,0.242 -0.689,0.395l-3.139,1.889l0,2.067c0.205,0.034 0.434,0.072 0.689,0.115c0.256,0.042 0.519,0.106 0.792,0.191c0.255,0.068 0.51,0.153 0.765,0.255c0.255,0.102 0.485,0.204 0.689,0.306l0.587,-0.587l0.51,0.434l-2.245,2.527c-0.289,-0.171 -0.587,-0.328 -0.893,-0.473c-0.307,-0.144 -0.621,-0.267 -0.945,-0.37c-0.459,-0.17 -0.914,-0.293 -1.365,-0.37c-0.451,-0.076 -0.889,-0.114 -1.314,-0.114c-0.17,-0 -0.345,0.004 -0.523,0.012c-0.179,0.009 -0.353,0.03 -0.523,0.064c0.153,-0.289 0.327,-0.553 0.523,-0.791c0.195,-0.238 0.446,-0.451 0.753,-0.638l-0,-6.277c-0,-0.12 -0.022,-0.264 -0.064,-0.434c-0.043,-0.17 -0.098,-0.34 -0.166,-0.511c-0.034,-0.085 -0.068,-0.165 -0.102,-0.242c-0.034,-0.077 -0.068,-0.149 -0.102,-0.217l-0,-0.025Zm2.934,0.561l0,3.573l1.71,-1.072c-0.119,-0.153 -0.234,-0.328 -0.344,-0.523c-0.111,-0.196 -0.217,-0.396 -0.319,-0.6c-0.153,-0.272 -0.285,-0.54 -0.396,-0.804c-0.11,-0.264 -0.2,-0.497 -0.268,-0.702l-0.383,0.128Z" style="fill:#838694;fill-rule:nonzero;"/><path d="M229.589,30.262c0.102,0.034 0.204,0.055 0.306,0.063c0.102,0.009 0.213,0.022 0.332,0.039c0.102,0.017 0.209,0.034 0.319,0.051c0.111,0.017 0.225,0.025 0.345,0.025c0.068,0.017 0.14,0.026 0.216,0.026l0.217,-0c0.307,-0 0.626,-0.034 0.957,-0.102c0.332,-0.068 0.66,-0.188 0.983,-0.358c0.221,-0.119 0.438,-0.268 0.651,-0.446c0.212,-0.179 0.429,-0.387 0.65,-0.625c0.323,0.323 0.613,0.552 0.868,0.689c0.255,0.136 0.493,0.204 0.714,0.204c0.205,-0 0.383,-0.039 0.536,-0.115c0.153,-0.077 0.289,-0.166 0.409,-0.268c0.102,-0.085 0.182,-0.166 0.242,-0.242c0.06,-0.077 0.089,-0.115 0.089,-0.115l0.638,-0.026c-0.238,0.749 -0.595,1.467 -1.071,2.156c-0.477,0.689 -0.979,1.298 -1.506,1.825c-0.068,0.085 -0.14,0.162 -0.217,0.23c-0.077,0.068 -0.149,0.136 -0.217,0.204l2.603,-0.026c-0.017,0.034 -0.03,0.068 -0.038,0.102c-0.009,0.034 -0.022,0.068 -0.039,0.103c-0.017,0.034 -0.034,0.072 -0.051,0.114c-0.017,0.043 -0.025,0.081 -0.025,0.115c-0.034,0.085 -0.06,0.17 -0.077,0.255c-0.017,0.085 -0.025,0.145 -0.025,0.179l-0,4.262c-0,0.068 0.008,0.144 0.025,0.229c0.017,0.085 0.043,0.179 0.077,0.281c0.017,0.068 0.042,0.132 0.076,0.191c0.034,0.06 0.068,0.115 0.103,0.166c-0.137,-0.034 -0.277,-0.059 -0.422,-0.076c-0.144,-0.017 -0.285,-0.034 -0.421,-0.051c-0.136,-0.017 -0.276,-0.03 -0.421,-0.039c-0.144,-0.008 -0.285,-0.012 -0.421,-0.012c-0.17,-0 -0.336,0.008 -0.497,0.025c-0.162,0.017 -0.328,0.043 -0.498,0.077c-0.391,0.085 -0.783,0.225 -1.174,0.421c-0.391,0.195 -0.757,0.48 -1.097,0.855c-0.187,-0.205 -0.362,-0.387 -0.523,-0.549c-0.162,-0.162 -0.319,-0.294 -0.472,-0.396c-0.17,-0.102 -0.336,-0.174 -0.498,-0.217c-0.162,-0.042 -0.336,-0.063 -0.523,-0.063c-0.357,-0 -0.689,0.097 -0.995,0.293c-0.306,0.196 -0.553,0.506 -0.74,0.932l-0.562,-0c0.153,-0.698 0.417,-1.361 0.791,-1.991c0.375,-0.629 0.774,-1.191 1.2,-1.684c0.136,-0.17 0.276,-0.332 0.421,-0.485c0.144,-0.153 0.285,-0.289 0.421,-0.408l-1.761,-0.026c0.051,-0.051 0.098,-0.115 0.14,-0.191c0.043,-0.077 0.073,-0.158 0.09,-0.243c0.017,-0.068 0.034,-0.131 0.051,-0.191c0.017,-0.06 0.025,-0.115 0.025,-0.166l0,-4.338c0,-0.034 -0.008,-0.085 -0.025,-0.153c-0.017,-0.068 -0.034,-0.136 -0.051,-0.204c-0.017,-0.051 -0.034,-0.102 -0.051,-0.153c-0.017,-0.051 -0.043,-0.094 -0.077,-0.128l0,-0.025Zm3.777,4.823c-0.289,0.289 -0.579,0.574 -0.868,0.854c-0.289,0.281 -0.578,0.575 -0.867,0.881c-0.153,0.153 -0.298,0.31 -0.434,0.472c-0.136,0.162 -0.281,0.327 -0.434,0.497c0.017,-0.017 0.038,-0.029 0.064,-0.038c0.025,-0.008 0.055,-0.013 0.089,-0.013c0.136,-0.051 0.298,-0.093 0.485,-0.127c0.187,-0.034 0.383,-0.051 0.587,-0.051c0.221,-0 0.459,0.034 0.714,0.102c0.256,0.068 0.519,0.187 0.791,0.357c0.137,0.102 0.273,0.213 0.409,0.332c0.136,0.119 0.263,0.255 0.383,0.408c0.034,-0.034 0.076,-0.059 0.127,-0.076c0.051,-0.017 0.102,-0.034 0.153,-0.051c0.085,-0.017 0.162,-0.03 0.23,-0.039c0.068,-0.008 0.11,-0.012 0.128,-0.012l-0,-3.394l-0.128,-0.102l-1.429,-0Zm-0.944,-4.058l-0,3.496l0.434,0l0.842,-0.74c0.323,-0.323 0.642,-0.646 0.957,-0.97c0.314,-0.323 0.625,-0.672 0.931,-1.046c0.068,-0.068 0.132,-0.14 0.191,-0.217c0.06,-0.076 0.124,-0.157 0.192,-0.242c-0.17,0.085 -0.362,0.166 -0.574,0.242c-0.213,0.077 -0.43,0.115 -0.651,0.115c-0.238,0 -0.498,-0.064 -0.778,-0.191c-0.281,-0.128 -0.592,-0.328 -0.932,-0.6c-0.034,0.017 -0.076,0.038 -0.127,0.064c-0.051,0.025 -0.103,0.038 -0.154,0.038c-0.068,0.034 -0.136,0.051 -0.204,0.051l-0.127,0Z" style="fill:#838694;fill-rule:nonzero;"/></g></svg>